<?xml version="1.0" standalone="no"?>
<!DOCTYPE svg PUBLIC "-//W3C//DTD SVG 20010904//EN"
 "http://www.w3.org/TR/2001/REC-SVG-20010904/DTD/svg10.dtd">
<svg version="1.0" xmlns="http://www.w3.org/2000/svg"
 width="312.000000pt" height="218.000000pt" viewBox="0 0 312.000000 218.000000"
 preserveAspectRatio="xMidYMid meet">
<metadata>
Created by potrace 1.16, written by Peter Selinger 2001-2019
</metadata>
<g transform="translate(0.000000,218.000000) scale(0.100000,-0.100000)"
fill="#000000" stroke="none">
<path d="M0 1090 l0 -1090 1560 0 1560 0 0 1090 0 1090 -1560 0 -1560 0 0
-1090z m1877 549 c34 -11 113 -64 113 -77 0 -4 -16 -24 -36 -45 l-35 -38 -30
25 c-38 32 -88 42 -142 27 -35 -10 -47 -20 -69 -62 -40 -71 -39 -147 2 -212
16 -26 42 -52 57 -58 38 -14 105 -6 136 17 21 15 47 60 47 80 0 2 -29 4 -65 4
l-65 0 0 50 0 50 125 0 125 0 0 -62 c0 -62 -30 -150 -62 -182 -39 -38 -112
-69 -177 -74 -60 -4 -73 -1 -128 26 -71 36 -117 89 -138 159 -44 143 11 295
129 355 72 37 130 42 213 17z m-526 -31 c28 -17 53 -41 63 -62 18 -37 21 -102
7 -138 -9 -23 -49 -66 -86 -92 -20 -14 -20 -15 7 -43 47 -49 139 -157 149
-175 9 -16 3 -18 -65 -18 l-75 0 -30 43 c-16 23 -38 51 -49 63 -11 11 -31 39
-46 62 -30 49 -46 53 -47 15 0 -16 -1 -62 -2 -103 l-2 -75 -57 -3 -58 -3 0
274 c0 150 3 277 8 281 4 4 59 6 122 4 104 -3 120 -6 161 -30z m-489 -80 c1
-51 1 -124 -1 -161 l-3 -68 71 2 c39 1 74 0 76 -3 10 -9 -36 -102 -63 -131
-43 -46 -128 -81 -192 -81 -99 1 -214 81 -239 166 -7 22 -10 42 -7 45 3 3 37
6 76 6 l70 0 0 104 c0 56 4 103 9 103 5 0 7 -18 5 -41 -4 -39 -3 -40 24 -37
27 3 27 4 29 78 0 41 2 83 2 93 1 14 11 17 71 17 l70 0 2 -92z m429 -478 c55
-17 71 -27 111 -75 56 -67 73 -126 65 -230 -6 -88 -20 -117 -85 -177 -61 -57
-109 -72 -214 -66 -65 4 -82 9 -115 33 -49 37 -69 60 -101 115 -24 39 -27 56
-27 130 0 92 10 120 68 192 38 47 69 68 127 84 65 18 100 17 171 -6z m-521
-15 c44 -23 63 -67 58 -133 -4 -44 -10 -60 -31 -78 -31 -27 -33 -34 -10 -34 9
0 34 -17 55 -37 35 -34 38 -41 38 -95 0 -50 -4 -62 -31 -93 -49 -55 -62 -59
-211 -61 l-138 -2 0 274 0 274 120 0 c89 0 129 -4 150 -15z m1480 -90 c0 -58
4 -105 9 -105 5 0 25 19 45 43 75 87 97 113 117 140 19 25 26 27 89 27 l69 0
-13 -25 c-7 -14 -27 -40 -43 -57 -17 -18 -48 -53 -69 -78 -81 -94 -76 -84 -60
-114 8 -15 29 -42 48 -60 54 -52 178 -198 178 -209 0 -3 -36 -5 -79 -6 -77 -1
-80 0 -103 29 -50 66 -170 200 -179 200 -5 0 -9 -51 -9 -115 l0 -116 -57 3
-58 3 -3 273 -2 272 60 0 60 0 0 -105z m-319 43 c10 -13 18 -29 19 -35 0 -7 2
-13 4 -13 2 0 13 -3 23 -6 16 -6 16 -5 -2 10 -13 11 -6 9 23 -5 47 -24 47 -24
57 -84 4 -28 3 -35 -4 -25 -7 10 -10 3 -9 -28 0 -23 5 -42 10 -42 5 0 8 6 7
13 -4 33 4 39 16 12 31 -67 8 -142 -65 -215 -63 -63 -93 -74 -195 -74 -101 0
-139 14 -207 77 -48 46 -67 85 -74 155 -5 49 -4 60 10 65 8 3 22 21 30 39 13
32 13 32 12 6 0 -15 -7 -30 -15 -33 -11 -4 -11 -8 -1 -20 7 -8 18 -15 24 -15
6 0 4 5 -4 10 -12 8 -12 10 -1 10 8 0 11 7 8 20 -3 11 -1 23 4 26 9 5 13 -22
10 -58 -2 -16 8 -18 88 -18 69 0 91 3 91 13 0 9 10 12 30 9 16 -2 27 -8 24
-13 -9 -16 50 -9 93 10 35 16 42 17 47 5 3 -8 14 -14 25 -14 17 0 19 7 19 55
-1 53 -1 55 -26 48 -16 -4 -23 -2 -18 5 3 5 -7 23 -23 38 -17 15 -28 31 -25
36 3 4 -2 10 -10 13 -9 3 -23 7 -31 10 -8 2 -12 11 -9 20 8 21 23 19 45 -7z
m209 -538 c16 -16 20 -33 20 -84 0 -39 -5 -68 -13 -74 -25 -21 -65 -21 -92 -1
-22 18 -25 28 -25 80 0 67 21 99 65 99 14 0 34 -9 45 -20z m304 4 c3 -9 6 -27
6 -40 0 -19 5 -24 24 -24 21 0 25 5 28 38 2 25 8 37 18 37 12 0 16 -18 18 -92
3 -88 2 -93 -18 -93 -17 0 -20 6 -20 40 0 36 -2 40 -25 40 -22 0 -25 -4 -25
-40 0 -33 -3 -40 -20 -40 -19 0 -20 7 -20 95 0 75 3 95 14 95 8 0 17 -7 20
-16z"/>
<path d="M1180 1462 l0 -79 47 7 c124 19 103 150 -23 150 -23 0 -24 -3 -24
-78z"/>
<path d="M730 1520 l0 -90 30 0 c29 0 29 -1 32 -62 3 -61 4 -63 31 -66 l28 -3
-3 153 -3 153 -57 3 -58 3 0 -91z"/>
<path d="M1164 953 c-12 -2 -39 -19 -60 -37 -34 -30 -38 -38 -42 -94 -8 -105
3 -146 46 -176 53 -36 93 -42 148 -21 39 15 50 25 67 64 38 85 16 206 -46 245
-25 16 -82 26 -113 19z"/>
<path d="M614 725 c-3 -7 -4 -39 -2 -71 3 -54 5 -59 28 -62 40 -6 100 17 112
43 13 30 3 71 -21 85 -30 16 -112 19 -117 5z"/>
</g>
</svg>
